<mxfile host="app.diagrams.net" modified="2021-05-08T04:47:54.209Z" agent="5.0 (Windows NT 10.0; Win64; x64) AppleWebKit/537.36 (KHTML, like Gecko) Chrome/90.0.4430.93 Safari/537.36" etag="BfaKEL7jfX0OZbIgJXOo" version="14.6.11" type="github">
  <diagram id="UfsP-iSG0G8vILF3QGF1" name="Page-1">
    <mxGraphModel dx="1865" dy="580" grid="1" gridSize="10" guides="1" tooltips="1" connect="1" arrows="1" fold="1" page="1" pageScale="1" pageWidth="827" pageHeight="1169" math="0" shadow="0">
      <root>
        <mxCell id="0" />
        <mxCell id="1" parent="0" />
        <mxCell id="gmoIRthzLqsIXVKhnBWM-1" value="&lt;font style=&quot;font-size: 18px&quot;&gt;cinema&lt;/font&gt;" style="rounded=0;whiteSpace=wrap;html=1;" parent="1" vertex="1">
          <mxGeometry x="-330" y="300" width="120" height="60" as="geometry" />
        </mxCell>
        <mxCell id="gmoIRthzLqsIXVKhnBWM-18" style="edgeStyle=none;orthogonalLoop=1;jettySize=auto;html=1;exitX=0.5;exitY=0;exitDx=0;exitDy=0;entryX=0.75;entryY=1;entryDx=0;entryDy=0;endArrow=none;" parent="1" source="gmoIRthzLqsIXVKhnBWM-6" target="gmoIRthzLqsIXVKhnBWM-1" edge="1">
          <mxGeometry relative="1" as="geometry" />
        </mxCell>
        <mxCell id="gmoIRthzLqsIXVKhnBWM-6" value="contact number" style="ellipse;whiteSpace=wrap;html=1;" parent="1" vertex="1">
          <mxGeometry x="-330" y="390" width="80" height="60" as="geometry" />
        </mxCell>
        <mxCell id="gmoIRthzLqsIXVKhnBWM-17" style="edgeStyle=none;orthogonalLoop=1;jettySize=auto;html=1;exitX=0.5;exitY=0;exitDx=0;exitDy=0;entryX=0.25;entryY=1;entryDx=0;entryDy=0;endArrow=none;" parent="1" source="gmoIRthzLqsIXVKhnBWM-7" target="gmoIRthzLqsIXVKhnBWM-1" edge="1">
          <mxGeometry relative="1" as="geometry" />
        </mxCell>
        <mxCell id="gmoIRthzLqsIXVKhnBWM-7" value="address" style="ellipse;whiteSpace=wrap;html=1;" parent="1" vertex="1">
          <mxGeometry x="-430" y="380" width="80" height="60" as="geometry" />
        </mxCell>
        <mxCell id="gmoIRthzLqsIXVKhnBWM-20" style="edgeStyle=none;orthogonalLoop=1;jettySize=auto;html=1;entryX=0;entryY=0;entryDx=0;entryDy=0;endArrow=none;" parent="1" source="gmoIRthzLqsIXVKhnBWM-19" target="gmoIRthzLqsIXVKhnBWM-1" edge="1">
          <mxGeometry relative="1" as="geometry" />
        </mxCell>
        <mxCell id="gmoIRthzLqsIXVKhnBWM-19" value="manager&#39;s name" style="ellipse;whiteSpace=wrap;html=1;" parent="1" vertex="1">
          <mxGeometry x="-430" y="230" width="80" height="60" as="geometry" />
        </mxCell>
        <mxCell id="gmoIRthzLqsIXVKhnBWM-22" style="edgeStyle=none;orthogonalLoop=1;jettySize=auto;html=1;entryX=0.342;entryY=-0.007;entryDx=0;entryDy=0;entryPerimeter=0;endArrow=none;" parent="1" source="gmoIRthzLqsIXVKhnBWM-21" target="gmoIRthzLqsIXVKhnBWM-1" edge="1">
          <mxGeometry relative="1" as="geometry" />
        </mxCell>
        <mxCell id="gmoIRthzLqsIXVKhnBWM-21" value="&lt;u&gt;cinema ID&lt;/u&gt;" style="ellipse;whiteSpace=wrap;html=1;" parent="1" vertex="1">
          <mxGeometry x="-330" y="190" width="80" height="60" as="geometry" />
        </mxCell>
        <mxCell id="gmoIRthzLqsIXVKhnBWM-24" style="edgeStyle=none;orthogonalLoop=1;jettySize=auto;html=1;exitX=0;exitY=1;exitDx=0;exitDy=0;entryX=0.75;entryY=0;entryDx=0;entryDy=0;endArrow=none;" parent="1" source="gmoIRthzLqsIXVKhnBWM-23" target="gmoIRthzLqsIXVKhnBWM-1" edge="1">
          <mxGeometry relative="1" as="geometry" />
        </mxCell>
        <mxCell id="gmoIRthzLqsIXVKhnBWM-23" value="name" style="ellipse;whiteSpace=wrap;html=1;" parent="1" vertex="1">
          <mxGeometry x="-230" y="210" width="80" height="60" as="geometry" />
        </mxCell>
        <mxCell id="gmoIRthzLqsIXVKhnBWM-28" style="edgeStyle=none;orthogonalLoop=1;jettySize=auto;html=1;exitX=0.5;exitY=0;exitDx=0;exitDy=0;entryX=0.767;entryY=0.913;entryDx=0;entryDy=0;entryPerimeter=0;endArrow=none;" parent="1" source="gmoIRthzLqsIXVKhnBWM-25" target="gmoIRthzLqsIXVKhnBWM-7" edge="1">
          <mxGeometry relative="1" as="geometry" />
        </mxCell>
        <mxCell id="gmoIRthzLqsIXVKhnBWM-25" value="street" style="ellipse;whiteSpace=wrap;html=1;" parent="1" vertex="1">
          <mxGeometry x="-420" y="460" width="80" height="60" as="geometry" />
        </mxCell>
        <mxCell id="gmoIRthzLqsIXVKhnBWM-27" style="edgeStyle=none;orthogonalLoop=1;jettySize=auto;html=1;exitX=0.5;exitY=0;exitDx=0;exitDy=0;entryX=0;entryY=1;entryDx=0;entryDy=0;endArrow=none;" parent="1" source="gmoIRthzLqsIXVKhnBWM-26" target="gmoIRthzLqsIXVKhnBWM-7" edge="1">
          <mxGeometry relative="1" as="geometry" />
        </mxCell>
        <mxCell id="gmoIRthzLqsIXVKhnBWM-26" value="suburb" style="ellipse;whiteSpace=wrap;html=1;" parent="1" vertex="1">
          <mxGeometry x="-520" y="440" width="80" height="60" as="geometry" />
        </mxCell>
        <mxCell id="gmoIRthzLqsIXVKhnBWM-29" value="" style="shape=link;html=1;rounded=0;endArrow=none;width=6;" parent="1" edge="1">
          <mxGeometry relative="1" as="geometry">
            <mxPoint x="-210" y="329.5" as="sourcePoint" />
            <mxPoint x="-110" y="330" as="targetPoint" />
          </mxGeometry>
        </mxCell>
        <mxCell id="gmoIRthzLqsIXVKhnBWM-31" value="" style="resizable=0;html=1;align=right;verticalAlign=bottom;" parent="gmoIRthzLqsIXVKhnBWM-29" connectable="0" vertex="1">
          <mxGeometry x="1" relative="1" as="geometry" />
        </mxCell>
        <mxCell id="gmoIRthzLqsIXVKhnBWM-59" value="" style="resizable=0;html=1;align=right;verticalAlign=bottom;" parent="gmoIRthzLqsIXVKhnBWM-29" connectable="0" vertex="1">
          <mxGeometry x="1" relative="1" as="geometry">
            <mxPoint x="80" y="70" as="offset" />
          </mxGeometry>
        </mxCell>
        <mxCell id="gmoIRthzLqsIXVKhnBWM-32" value="&lt;span style=&quot;font-size: 18px&quot;&gt;hall&lt;/span&gt;" style="rounded=0;whiteSpace=wrap;html=1;" parent="1" vertex="1">
          <mxGeometry x="40" y="300" width="120" height="60" as="geometry" />
        </mxCell>
        <mxCell id="gmoIRthzLqsIXVKhnBWM-34" value="own" style="shape=rhombus;perimeter=rhombusPerimeter;whiteSpace=wrap;html=1;align=center;" parent="1" vertex="1">
          <mxGeometry x="-150" y="300" width="120" height="60" as="geometry" />
        </mxCell>
        <mxCell id="gmoIRthzLqsIXVKhnBWM-35" value="" style="shape=link;html=1;rounded=0;endArrow=none;width=6;" parent="1" edge="1">
          <mxGeometry relative="1" as="geometry">
            <mxPoint x="-40" y="329.5" as="sourcePoint" />
            <mxPoint x="40" y="330" as="targetPoint" />
          </mxGeometry>
        </mxCell>
        <mxCell id="gmoIRthzLqsIXVKhnBWM-36" value="&lt;font style=&quot;font-size: 14px&quot;&gt;N&lt;/font&gt;" style="resizable=0;html=1;align=left;verticalAlign=bottom;" parent="gmoIRthzLqsIXVKhnBWM-35" connectable="0" vertex="1">
          <mxGeometry x="-1" relative="1" as="geometry">
            <mxPoint x="60" as="offset" />
          </mxGeometry>
        </mxCell>
        <mxCell id="gmoIRthzLqsIXVKhnBWM-37" value="" style="resizable=0;html=1;align=right;verticalAlign=bottom;" parent="gmoIRthzLqsIXVKhnBWM-35" connectable="0" vertex="1">
          <mxGeometry x="1" relative="1" as="geometry" />
        </mxCell>
        <mxCell id="gmoIRthzLqsIXVKhnBWM-40" value="&lt;font style=&quot;font-size: 14px&quot;&gt;1&lt;/font&gt;" style="resizable=0;html=1;align=left;verticalAlign=bottom;" parent="gmoIRthzLqsIXVKhnBWM-35" connectable="0" vertex="1">
          <mxGeometry x="-1" relative="1" as="geometry">
            <mxPoint x="-140" y="1" as="offset" />
          </mxGeometry>
        </mxCell>
        <mxCell id="gmoIRthzLqsIXVKhnBWM-38" style="edgeStyle=none;orthogonalLoop=1;jettySize=auto;html=1;exitX=0.25;exitY=0;exitDx=0;exitDy=0;endArrow=none;" parent="1" source="gmoIRthzLqsIXVKhnBWM-32" target="gmoIRthzLqsIXVKhnBWM-32" edge="1">
          <mxGeometry relative="1" as="geometry" />
        </mxCell>
        <mxCell id="gmoIRthzLqsIXVKhnBWM-42" style="edgeStyle=none;orthogonalLoop=1;jettySize=auto;html=1;exitX=0.5;exitY=1;exitDx=0;exitDy=0;entryX=0.165;entryY=0.02;entryDx=0;entryDy=0;entryPerimeter=0;endArrow=none;" parent="1" source="gmoIRthzLqsIXVKhnBWM-41" target="gmoIRthzLqsIXVKhnBWM-32" edge="1">
          <mxGeometry relative="1" as="geometry" />
        </mxCell>
        <mxCell id="gmoIRthzLqsIXVKhnBWM-41" value="&lt;u&gt;hall ID&lt;/u&gt;" style="ellipse;whiteSpace=wrap;html=1;" parent="1" vertex="1">
          <mxGeometry x="20" y="200" width="80" height="60" as="geometry" />
        </mxCell>
        <mxCell id="gmoIRthzLqsIXVKhnBWM-45" style="edgeStyle=none;orthogonalLoop=1;jettySize=auto;html=1;entryX=0.75;entryY=0;entryDx=0;entryDy=0;endArrow=none;" parent="1" source="gmoIRthzLqsIXVKhnBWM-44" target="gmoIRthzLqsIXVKhnBWM-32" edge="1">
          <mxGeometry relative="1" as="geometry" />
        </mxCell>
        <mxCell id="gmoIRthzLqsIXVKhnBWM-44" value="name" style="ellipse;whiteSpace=wrap;html=1;" parent="1" vertex="1">
          <mxGeometry x="120" y="200" width="80" height="60" as="geometry" />
        </mxCell>
        <mxCell id="gmoIRthzLqsIXVKhnBWM-47" style="edgeStyle=none;orthogonalLoop=1;jettySize=auto;html=1;endArrow=none;" parent="1" source="gmoIRthzLqsIXVKhnBWM-46" target="gmoIRthzLqsIXVKhnBWM-32" edge="1">
          <mxGeometry relative="1" as="geometry" />
        </mxCell>
        <mxCell id="gmoIRthzLqsIXVKhnBWM-46" value="category" style="ellipse;whiteSpace=wrap;html=1;" parent="1" vertex="1">
          <mxGeometry x="210" y="300" width="80" height="60" as="geometry" />
        </mxCell>
        <mxCell id="gmoIRthzLqsIXVKhnBWM-54" style="edgeStyle=none;orthogonalLoop=1;jettySize=auto;html=1;entryX=0;entryY=0.5;entryDx=0;entryDy=0;endArrow=none;" parent="1" source="gmoIRthzLqsIXVKhnBWM-48" target="gmoIRthzLqsIXVKhnBWM-53" edge="1">
          <mxGeometry relative="1" as="geometry" />
        </mxCell>
        <mxCell id="gmoIRthzLqsIXVKhnBWM-48" value="belong to&amp;nbsp;" style="shape=rhombus;perimeter=rhombusPerimeter;whiteSpace=wrap;html=1;align=center;" parent="1" vertex="1">
          <mxGeometry x="30" y="410" width="120" height="60" as="geometry" />
        </mxCell>
        <mxCell id="gmoIRthzLqsIXVKhnBWM-50" value="&lt;span style=&quot;font-size: 18px&quot;&gt;seat&lt;/span&gt;" style="rounded=0;whiteSpace=wrap;html=1;" parent="1" vertex="1">
          <mxGeometry x="30" y="520" width="120" height="60" as="geometry" />
        </mxCell>
        <mxCell id="gmoIRthzLqsIXVKhnBWM-53" value="number of seats" style="ellipse;whiteSpace=wrap;html=1;" parent="1" vertex="1">
          <mxGeometry x="200" y="400" width="80" height="60" as="geometry" />
        </mxCell>
        <mxCell id="gmoIRthzLqsIXVKhnBWM-58" style="edgeStyle=none;orthogonalLoop=1;jettySize=auto;html=1;entryX=1;entryY=0.75;entryDx=0;entryDy=0;endArrow=none;" parent="1" source="gmoIRthzLqsIXVKhnBWM-55" target="gmoIRthzLqsIXVKhnBWM-50" edge="1">
          <mxGeometry relative="1" as="geometry" />
        </mxCell>
        <mxCell id="gmoIRthzLqsIXVKhnBWM-55" value="&lt;u&gt;seat ID&lt;/u&gt;" style="ellipse;whiteSpace=wrap;html=1;" parent="1" vertex="1">
          <mxGeometry x="200" y="510" width="80" height="60" as="geometry" />
        </mxCell>
        <mxCell id="gmoIRthzLqsIXVKhnBWM-57" style="edgeStyle=none;orthogonalLoop=1;jettySize=auto;html=1;exitX=1;exitY=0.5;exitDx=0;exitDy=0;entryX=1;entryY=1;entryDx=0;entryDy=0;endArrow=none;" parent="1" source="gmoIRthzLqsIXVKhnBWM-56" target="gmoIRthzLqsIXVKhnBWM-50" edge="1">
          <mxGeometry relative="1" as="geometry" />
        </mxCell>
        <mxCell id="gmoIRthzLqsIXVKhnBWM-56" value="&lt;u&gt;hall ID&lt;/u&gt;" style="ellipse;whiteSpace=wrap;html=1;" parent="1" vertex="1">
          <mxGeometry x="220" y="640" width="80" height="60" as="geometry" />
        </mxCell>
        <mxCell id="gmoIRthzLqsIXVKhnBWM-65" value="" style="shape=link;html=1;rounded=0;endArrow=none;width=6;entryX=0.5;entryY=0;entryDx=0;entryDy=0;exitX=0.412;exitY=0.993;exitDx=0;exitDy=0;exitPerimeter=0;" parent="1" source="gmoIRthzLqsIXVKhnBWM-32" target="gmoIRthzLqsIXVKhnBWM-48" edge="1">
          <mxGeometry relative="1" as="geometry">
            <mxPoint x="60" y="380" as="sourcePoint" />
            <mxPoint x="160" y="380.5" as="targetPoint" />
            <Array as="points">
              <mxPoint x="90" y="400" />
            </Array>
          </mxGeometry>
        </mxCell>
        <mxCell id="gmoIRthzLqsIXVKhnBWM-66" value="" style="resizable=0;html=1;align=right;verticalAlign=bottom;" parent="gmoIRthzLqsIXVKhnBWM-65" connectable="0" vertex="1">
          <mxGeometry x="1" relative="1" as="geometry" />
        </mxCell>
        <mxCell id="gmoIRthzLqsIXVKhnBWM-67" value="" style="resizable=0;html=1;align=right;verticalAlign=bottom;" parent="gmoIRthzLqsIXVKhnBWM-65" connectable="0" vertex="1">
          <mxGeometry x="1" relative="1" as="geometry">
            <mxPoint x="80" y="70" as="offset" />
          </mxGeometry>
        </mxCell>
        <mxCell id="gmoIRthzLqsIXVKhnBWM-70" value="&lt;font style=&quot;font-size: 14px&quot;&gt;N&lt;/font&gt;" style="resizable=0;html=1;align=left;verticalAlign=bottom;" parent="1" connectable="0" vertex="1">
          <mxGeometry x="60" y="500" as="geometry">
            <mxPoint x="4" y="18" as="offset" />
          </mxGeometry>
        </mxCell>
        <mxCell id="gmoIRthzLqsIXVKhnBWM-74" value="" style="shape=link;html=1;rounded=0;endArrow=none;width=6;entryX=0.5;entryY=0;entryDx=0;entryDy=0;exitX=0.412;exitY=0.993;exitDx=0;exitDy=0;exitPerimeter=0;" parent="1" edge="1">
          <mxGeometry relative="1" as="geometry">
            <mxPoint x="89.72000000000003" y="470" as="sourcePoint" />
            <mxPoint x="90.27999999999997" y="520.42" as="targetPoint" />
            <Array as="points">
              <mxPoint x="90.27999999999997" y="510.41999999999996" />
            </Array>
          </mxGeometry>
        </mxCell>
        <mxCell id="gmoIRthzLqsIXVKhnBWM-75" value="" style="resizable=0;html=1;align=right;verticalAlign=bottom;" parent="gmoIRthzLqsIXVKhnBWM-74" connectable="0" vertex="1">
          <mxGeometry x="1" relative="1" as="geometry" />
        </mxCell>
        <mxCell id="gmoIRthzLqsIXVKhnBWM-76" value="" style="resizable=0;html=1;align=right;verticalAlign=bottom;" parent="gmoIRthzLqsIXVKhnBWM-74" connectable="0" vertex="1">
          <mxGeometry x="1" relative="1" as="geometry">
            <mxPoint x="80" y="70" as="offset" />
          </mxGeometry>
        </mxCell>
        <mxCell id="gmoIRthzLqsIXVKhnBWM-78" value="&lt;font style=&quot;font-size: 14px&quot;&gt;1&lt;/font&gt;" style="resizable=0;html=1;align=left;verticalAlign=bottom;" parent="1" connectable="0" vertex="1">
          <mxGeometry x="66" y="380" as="geometry">
            <mxPoint x="4" y="18" as="offset" />
          </mxGeometry>
        </mxCell>
        <mxCell id="gmoIRthzLqsIXVKhnBWM-79" value="have" style="shape=rhombus;perimeter=rhombusPerimeter;whiteSpace=wrap;html=1;align=center;" parent="1" vertex="1">
          <mxGeometry x="-180" y="460" width="120" height="60" as="geometry" />
        </mxCell>
        <mxCell id="gmoIRthzLqsIXVKhnBWM-82" value="" style="shape=link;html=1;rounded=0;endArrow=none;entryX=0;entryY=1;entryDx=0;entryDy=0;" parent="1" target="gmoIRthzLqsIXVKhnBWM-32" edge="1">
          <mxGeometry relative="1" as="geometry">
            <mxPoint x="-110" y="470" as="sourcePoint" />
            <mxPoint x="30" y="429.29" as="targetPoint" />
          </mxGeometry>
        </mxCell>
        <mxCell id="gmoIRthzLqsIXVKhnBWM-84" value="&lt;font style=&quot;font-size: 14px&quot;&gt;1&lt;/font&gt;" style="resizable=0;html=1;align=left;verticalAlign=bottom;" parent="1" connectable="0" vertex="1">
          <mxGeometry x="-7" y="360" as="geometry">
            <mxPoint x="8" y="22" as="offset" />
          </mxGeometry>
        </mxCell>
        <mxCell id="gmoIRthzLqsIXVKhnBWM-85" value="&lt;font style=&quot;font-size: 18px&quot;&gt;session&lt;/font&gt;" style="rounded=0;whiteSpace=wrap;html=1;" parent="1" vertex="1">
          <mxGeometry x="-340" y="570" width="120" height="60" as="geometry" />
        </mxCell>
        <mxCell id="gmoIRthzLqsIXVKhnBWM-86" value="" style="shape=link;html=1;rounded=0;endArrow=none;entryX=0.75;entryY=0;entryDx=0;entryDy=0;" parent="1" source="gmoIRthzLqsIXVKhnBWM-79" target="gmoIRthzLqsIXVKhnBWM-85" edge="1">
          <mxGeometry relative="1" as="geometry">
            <mxPoint x="60" y="450" as="sourcePoint" />
            <mxPoint x="220" y="450" as="targetPoint" />
          </mxGeometry>
        </mxCell>
        <mxCell id="gmoIRthzLqsIXVKhnBWM-87" value="N" style="resizable=0;html=1;align=right;verticalAlign=bottom;" parent="gmoIRthzLqsIXVKhnBWM-86" connectable="0" vertex="1">
          <mxGeometry x="1" relative="1" as="geometry" />
        </mxCell>
        <mxCell id="gmoIRthzLqsIXVKhnBWM-91" style="edgeStyle=none;orthogonalLoop=1;jettySize=auto;html=1;exitX=1;exitY=0.5;exitDx=0;exitDy=0;entryX=0;entryY=0.5;entryDx=0;entryDy=0;endArrow=none;" parent="1" source="gmoIRthzLqsIXVKhnBWM-88" target="gmoIRthzLqsIXVKhnBWM-85" edge="1">
          <mxGeometry relative="1" as="geometry" />
        </mxCell>
        <mxCell id="gmoIRthzLqsIXVKhnBWM-88" value="&lt;u&gt;sessions ID&lt;/u&gt;" style="ellipse;whiteSpace=wrap;html=1;" parent="1" vertex="1">
          <mxGeometry x="-500" y="530" width="80" height="60" as="geometry" />
        </mxCell>
        <mxCell id="gmoIRthzLqsIXVKhnBWM-92" style="edgeStyle=none;orthogonalLoop=1;jettySize=auto;html=1;entryX=0;entryY=1;entryDx=0;entryDy=0;endArrow=none;" parent="1" source="gmoIRthzLqsIXVKhnBWM-89" target="gmoIRthzLqsIXVKhnBWM-85" edge="1">
          <mxGeometry relative="1" as="geometry" />
        </mxCell>
        <mxCell id="gmoIRthzLqsIXVKhnBWM-89" value="end time" style="ellipse;whiteSpace=wrap;html=1;" parent="1" vertex="1">
          <mxGeometry x="-510" y="620" width="80" height="50" as="geometry" />
        </mxCell>
        <mxCell id="gmoIRthzLqsIXVKhnBWM-93" style="edgeStyle=none;orthogonalLoop=1;jettySize=auto;html=1;entryX=0.5;entryY=1;entryDx=0;entryDy=0;endArrow=none;" parent="1" source="gmoIRthzLqsIXVKhnBWM-90" target="gmoIRthzLqsIXVKhnBWM-85" edge="1">
          <mxGeometry relative="1" as="geometry" />
        </mxCell>
        <mxCell id="gmoIRthzLqsIXVKhnBWM-90" value="end time" style="ellipse;whiteSpace=wrap;html=1;" parent="1" vertex="1">
          <mxGeometry x="-470" y="670" width="80" height="60" as="geometry" />
        </mxCell>
        <mxCell id="gmoIRthzLqsIXVKhnBWM-94" value="&lt;font style=&quot;font-size: 18px&quot;&gt;movie&lt;/font&gt;" style="rounded=0;whiteSpace=wrap;html=1;" parent="1" vertex="1">
          <mxGeometry x="-310" y="895" width="120" height="60" as="geometry" />
        </mxCell>
        <mxCell id="gmoIRthzLqsIXVKhnBWM-95" value="play" style="shape=rhombus;perimeter=rhombusPerimeter;whiteSpace=wrap;html=1;align=center;" parent="1" vertex="1">
          <mxGeometry x="-320" y="745" width="120" height="60" as="geometry" />
        </mxCell>
        <mxCell id="gmoIRthzLqsIXVKhnBWM-96" value="" style="shape=link;html=1;rounded=0;endArrow=none;entryX=0.5;entryY=0;entryDx=0;entryDy=0;" parent="1" target="gmoIRthzLqsIXVKhnBWM-95" edge="1">
          <mxGeometry relative="1" as="geometry">
            <mxPoint x="-260" y="630" as="sourcePoint" />
            <mxPoint x="-60" y="599.29" as="targetPoint" />
          </mxGeometry>
        </mxCell>
        <mxCell id="gmoIRthzLqsIXVKhnBWM-97" value="N" style="resizable=0;html=1;align=right;verticalAlign=bottom;" parent="gmoIRthzLqsIXVKhnBWM-96" connectable="0" vertex="1">
          <mxGeometry x="1" relative="1" as="geometry">
            <mxPoint x="-10" y="-65" as="offset" />
          </mxGeometry>
        </mxCell>
        <mxCell id="gmoIRthzLqsIXVKhnBWM-98" style="edgeStyle=none;orthogonalLoop=1;jettySize=auto;html=1;exitX=1;exitY=1;exitDx=0;exitDy=0;endArrow=none;" parent="1" edge="1">
          <mxGeometry relative="1" as="geometry">
            <mxPoint x="-310" y="850" as="sourcePoint" />
            <mxPoint x="-310" y="850" as="targetPoint" />
          </mxGeometry>
        </mxCell>
        <mxCell id="gmoIRthzLqsIXVKhnBWM-99" value="" style="shape=link;html=1;rounded=0;endArrow=none;exitX=0.5;exitY=1;exitDx=0;exitDy=0;" parent="1" source="gmoIRthzLqsIXVKhnBWM-95" edge="1">
          <mxGeometry relative="1" as="geometry">
            <mxPoint x="-70" y="650" as="sourcePoint" />
            <mxPoint x="-260" y="891" as="targetPoint" />
          </mxGeometry>
        </mxCell>
        <mxCell id="gmoIRthzLqsIXVKhnBWM-100" value="1" style="resizable=0;html=1;align=right;verticalAlign=bottom;direction=south;" parent="gmoIRthzLqsIXVKhnBWM-99" connectable="0" vertex="1">
          <mxGeometry x="1" relative="1" as="geometry">
            <mxPoint x="3" y="-10" as="offset" />
          </mxGeometry>
        </mxCell>
        <mxCell id="gmoIRthzLqsIXVKhnBWM-106" style="edgeStyle=none;orthogonalLoop=1;jettySize=auto;html=1;entryX=0;entryY=0.75;entryDx=0;entryDy=0;endArrow=none;" parent="1" source="gmoIRthzLqsIXVKhnBWM-101" target="gmoIRthzLqsIXVKhnBWM-94" edge="1">
          <mxGeometry relative="1" as="geometry" />
        </mxCell>
        <mxCell id="gmoIRthzLqsIXVKhnBWM-101" value="&lt;u&gt;movie ID&lt;/u&gt;" style="ellipse;whiteSpace=wrap;html=1;" parent="1" vertex="1">
          <mxGeometry x="-450" y="955" width="80" height="55" as="geometry" />
        </mxCell>
        <mxCell id="gmoIRthzLqsIXVKhnBWM-107" style="edgeStyle=none;orthogonalLoop=1;jettySize=auto;html=1;entryX=0.25;entryY=1;entryDx=0;entryDy=0;endArrow=none;" parent="1" source="gmoIRthzLqsIXVKhnBWM-102" target="gmoIRthzLqsIXVKhnBWM-94" edge="1">
          <mxGeometry relative="1" as="geometry" />
        </mxCell>
        <mxCell id="gmoIRthzLqsIXVKhnBWM-102" value="category" style="ellipse;whiteSpace=wrap;html=1;" parent="1" vertex="1">
          <mxGeometry x="-350" y="985" width="80" height="55" as="geometry" />
        </mxCell>
        <mxCell id="gmoIRthzLqsIXVKhnBWM-108" style="edgeStyle=none;orthogonalLoop=1;jettySize=auto;html=1;endArrow=none;exitX=0.5;exitY=0;exitDx=0;exitDy=0;" parent="1" source="gmoIRthzLqsIXVKhnBWM-110" target="gmoIRthzLqsIXVKhnBWM-94" edge="1">
          <mxGeometry relative="1" as="geometry">
            <mxPoint x="-219.41716693580247" y="986.3585959246263" as="sourcePoint" />
          </mxGeometry>
        </mxCell>
        <mxCell id="gmoIRthzLqsIXVKhnBWM-105" style="edgeStyle=none;orthogonalLoop=1;jettySize=auto;html=1;entryX=0;entryY=0.25;entryDx=0;entryDy=0;endArrow=none;" parent="1" source="gmoIRthzLqsIXVKhnBWM-104" target="gmoIRthzLqsIXVKhnBWM-94" edge="1">
          <mxGeometry relative="1" as="geometry" />
        </mxCell>
        <mxCell id="gmoIRthzLqsIXVKhnBWM-104" value="rating" style="ellipse;whiteSpace=wrap;html=1;" parent="1" vertex="1">
          <mxGeometry x="-430" y="882.5" width="70" height="55" as="geometry" />
        </mxCell>
        <mxCell id="gmoIRthzLqsIXVKhnBWM-109" value="1" style="text;html=1;strokeColor=none;fillColor=none;align=center;verticalAlign=middle;whiteSpace=wrap;rounded=0;" parent="1" vertex="1">
          <mxGeometry x="-300" y="862.5" width="40" height="20" as="geometry" />
        </mxCell>
        <mxCell id="gmoIRthzLqsIXVKhnBWM-110" value="languages" style="ellipse;shape=doubleEllipse;margin=3;whiteSpace=wrap;html=1;align=center;" parent="1" vertex="1">
          <mxGeometry x="-250" y="1000" width="100" height="40" as="geometry" />
        </mxCell>
        <mxCell id="gmoIRthzLqsIXVKhnBWM-112" value="&lt;font style=&quot;font-size: 18px&quot;&gt;director&lt;/font&gt;" style="rounded=0;whiteSpace=wrap;html=1;" parent="1" vertex="1">
          <mxGeometry x="66" y="895" width="120" height="60" as="geometry" />
        </mxCell>
        <mxCell id="gmoIRthzLqsIXVKhnBWM-114" style="edgeStyle=none;orthogonalLoop=1;jettySize=auto;html=1;endArrow=none;entryX=0.033;entryY=0.5;entryDx=0;entryDy=0;entryPerimeter=0;" parent="1" source="gmoIRthzLqsIXVKhnBWM-113" target="gmoIRthzLqsIXVKhnBWM-112" edge="1">
          <mxGeometry relative="1" as="geometry">
            <mxPoint x="60" y="925" as="targetPoint" />
          </mxGeometry>
        </mxCell>
        <mxCell id="gmoIRthzLqsIXVKhnBWM-113" value="direct" style="shape=rhombus;perimeter=rhombusPerimeter;whiteSpace=wrap;html=1;align=center;" parent="1" vertex="1">
          <mxGeometry x="-127" y="895" width="120" height="60" as="geometry" />
        </mxCell>
        <mxCell id="gmoIRthzLqsIXVKhnBWM-115" value="" style="shape=link;html=1;rounded=0;endArrow=none;entryX=0;entryY=0.5;entryDx=0;entryDy=0;" parent="1" target="gmoIRthzLqsIXVKhnBWM-113" edge="1">
          <mxGeometry relative="1" as="geometry">
            <mxPoint x="-190" y="924.29" as="sourcePoint" />
            <mxPoint x="-130" y="924" as="targetPoint" />
          </mxGeometry>
        </mxCell>
        <mxCell id="gmoIRthzLqsIXVKhnBWM-116" value="N" style="resizable=0;html=1;align=right;verticalAlign=bottom;" parent="gmoIRthzLqsIXVKhnBWM-115" connectable="0" vertex="1">
          <mxGeometry x="1" relative="1" as="geometry">
            <mxPoint x="-30" y="1" as="offset" />
          </mxGeometry>
        </mxCell>
        <mxCell id="gmoIRthzLqsIXVKhnBWM-117" value="M" style="text;html=1;strokeColor=none;fillColor=none;align=center;verticalAlign=middle;whiteSpace=wrap;rounded=0;" parent="1" vertex="1">
          <mxGeometry x="20" y="900" width="40" height="20" as="geometry" />
        </mxCell>
        <mxCell id="gmoIRthzLqsIXVKhnBWM-128" style="edgeStyle=none;orthogonalLoop=1;jettySize=auto;html=1;entryX=0;entryY=1;entryDx=0;entryDy=0;endArrow=none;" parent="1" source="gmoIRthzLqsIXVKhnBWM-119" target="gmoIRthzLqsIXVKhnBWM-112" edge="1">
          <mxGeometry relative="1" as="geometry" />
        </mxCell>
        <mxCell id="gmoIRthzLqsIXVKhnBWM-119" value="&lt;u&gt;director ID&lt;/u&gt;" style="ellipse;whiteSpace=wrap;html=1;" parent="1" vertex="1">
          <mxGeometry x="-14" y="990" width="80" height="60" as="geometry" />
        </mxCell>
        <mxCell id="gmoIRthzLqsIXVKhnBWM-127" style="edgeStyle=none;orthogonalLoop=1;jettySize=auto;html=1;entryX=0.5;entryY=1;entryDx=0;entryDy=0;endArrow=none;" parent="1" source="gmoIRthzLqsIXVKhnBWM-120" target="gmoIRthzLqsIXVKhnBWM-112" edge="1">
          <mxGeometry relative="1" as="geometry" />
        </mxCell>
        <mxCell id="gmoIRthzLqsIXVKhnBWM-120" value="nationality" style="ellipse;whiteSpace=wrap;html=1;" parent="1" vertex="1">
          <mxGeometry x="100" y="992.5" width="70" height="55" as="geometry" />
        </mxCell>
        <mxCell id="gmoIRthzLqsIXVKhnBWM-126" style="edgeStyle=none;orthogonalLoop=1;jettySize=auto;html=1;endArrow=none;" parent="1" source="gmoIRthzLqsIXVKhnBWM-121" edge="1">
          <mxGeometry relative="1" as="geometry">
            <mxPoint x="190" y="960" as="targetPoint" />
          </mxGeometry>
        </mxCell>
        <mxCell id="gmoIRthzLqsIXVKhnBWM-121" value="last name" style="ellipse;whiteSpace=wrap;html=1;" parent="1" vertex="1">
          <mxGeometry x="210" y="990" width="70" height="55" as="geometry" />
        </mxCell>
        <mxCell id="gmoIRthzLqsIXVKhnBWM-125" style="edgeStyle=none;orthogonalLoop=1;jettySize=auto;html=1;entryX=1;entryY=0.5;entryDx=0;entryDy=0;endArrow=none;" parent="1" source="gmoIRthzLqsIXVKhnBWM-122" target="gmoIRthzLqsIXVKhnBWM-112" edge="1">
          <mxGeometry relative="1" as="geometry" />
        </mxCell>
        <mxCell id="gmoIRthzLqsIXVKhnBWM-122" value="first name" style="ellipse;whiteSpace=wrap;html=1;" parent="1" vertex="1">
          <mxGeometry x="230" y="897.5" width="70" height="55" as="geometry" />
        </mxCell>
        <mxCell id="gmoIRthzLqsIXVKhnBWM-124" style="edgeStyle=none;orthogonalLoop=1;jettySize=auto;html=1;endArrow=none;" parent="1" source="gmoIRthzLqsIXVKhnBWM-123" target="gmoIRthzLqsIXVKhnBWM-112" edge="1">
          <mxGeometry relative="1" as="geometry" />
        </mxCell>
        <mxCell id="gmoIRthzLqsIXVKhnBWM-123" value="birth" style="ellipse;whiteSpace=wrap;html=1;" parent="1" vertex="1">
          <mxGeometry x="230" y="827.5" width="70" height="55" as="geometry" />
        </mxCell>
        <mxCell id="gmoIRthzLqsIXVKhnBWM-129" value="&lt;font style=&quot;font-size: 18px&quot;&gt;actor&lt;/font&gt;" style="rounded=0;whiteSpace=wrap;html=1;" parent="1" vertex="1">
          <mxGeometry x="-80" y="685" width="120" height="60" as="geometry" />
        </mxCell>
        <mxCell id="gmoIRthzLqsIXVKhnBWM-130" value="act" style="shape=rhombus;perimeter=rhombusPerimeter;whiteSpace=wrap;html=1;align=center;" parent="1" vertex="1">
          <mxGeometry x="-170" y="780" width="120" height="70" as="geometry" />
        </mxCell>
        <mxCell id="gmoIRthzLqsIXVKhnBWM-131" style="edgeStyle=none;orthogonalLoop=1;jettySize=auto;html=1;exitX=0;exitY=0;exitDx=0;exitDy=0;endArrow=none;" parent="1" source="gmoIRthzLqsIXVKhnBWM-130" target="gmoIRthzLqsIXVKhnBWM-130" edge="1">
          <mxGeometry relative="1" as="geometry" />
        </mxCell>
        <mxCell id="gmoIRthzLqsIXVKhnBWM-134" value="" style="shape=link;html=1;rounded=0;endArrow=none;entryX=0.848;entryY=0.024;entryDx=0;entryDy=0;entryPerimeter=0;exitX=0;exitY=1;exitDx=0;exitDy=0;" parent="1" source="gmoIRthzLqsIXVKhnBWM-130" target="gmoIRthzLqsIXVKhnBWM-94" edge="1">
          <mxGeometry relative="1" as="geometry">
            <mxPoint x="60" y="740" as="sourcePoint" />
            <mxPoint x="220" y="740" as="targetPoint" />
          </mxGeometry>
        </mxCell>
        <mxCell id="gmoIRthzLqsIXVKhnBWM-135" value="N" style="resizable=0;html=1;align=right;verticalAlign=bottom;" parent="gmoIRthzLqsIXVKhnBWM-134" connectable="0" vertex="1">
          <mxGeometry x="1" relative="1" as="geometry" />
        </mxCell>
        <mxCell id="gmoIRthzLqsIXVKhnBWM-136" value="" style="shape=link;html=1;rounded=0;endArrow=none;entryX=0.681;entryY=0.145;entryDx=0;entryDy=0;entryPerimeter=0;exitX=0.5;exitY=1;exitDx=0;exitDy=0;" parent="1" source="gmoIRthzLqsIXVKhnBWM-129" target="gmoIRthzLqsIXVKhnBWM-130" edge="1">
          <mxGeometry relative="1" as="geometry">
            <mxPoint x="60" y="740" as="sourcePoint" />
            <mxPoint x="-70" y="770" as="targetPoint" />
          </mxGeometry>
        </mxCell>
        <mxCell id="gmoIRthzLqsIXVKhnBWM-137" value="N" style="resizable=0;html=1;align=right;verticalAlign=bottom;" parent="gmoIRthzLqsIXVKhnBWM-136" connectable="0" vertex="1">
          <mxGeometry x="1" relative="1" as="geometry" />
        </mxCell>
        <mxCell id="gmoIRthzLqsIXVKhnBWM-143" style="edgeStyle=none;orthogonalLoop=1;jettySize=auto;html=1;entryX=0;entryY=0;entryDx=0;entryDy=0;endArrow=none;" parent="1" source="gmoIRthzLqsIXVKhnBWM-138" target="gmoIRthzLqsIXVKhnBWM-129" edge="1">
          <mxGeometry relative="1" as="geometry" />
        </mxCell>
        <mxCell id="gmoIRthzLqsIXVKhnBWM-138" value="&lt;u&gt;actor ID&lt;/u&gt;" style="ellipse;whiteSpace=wrap;html=1;" parent="1" vertex="1">
          <mxGeometry x="-180" y="642.5" width="70" height="55" as="geometry" />
        </mxCell>
        <mxCell id="gmoIRthzLqsIXVKhnBWM-145" style="edgeStyle=none;orthogonalLoop=1;jettySize=auto;html=1;entryX=0.75;entryY=0;entryDx=0;entryDy=0;endArrow=none;" parent="1" source="gmoIRthzLqsIXVKhnBWM-139" target="gmoIRthzLqsIXVKhnBWM-129" edge="1">
          <mxGeometry relative="1" as="geometry" />
        </mxCell>
        <mxCell id="gmoIRthzLqsIXVKhnBWM-139" value="birth" style="ellipse;whiteSpace=wrap;html=1;" parent="1" vertex="1">
          <mxGeometry x="30" y="620" width="70" height="55" as="geometry" />
        </mxCell>
        <mxCell id="gmoIRthzLqsIXVKhnBWM-144" style="edgeStyle=none;orthogonalLoop=1;jettySize=auto;html=1;endArrow=none;" parent="1" source="gmoIRthzLqsIXVKhnBWM-140" target="gmoIRthzLqsIXVKhnBWM-129" edge="1">
          <mxGeometry relative="1" as="geometry" />
        </mxCell>
        <mxCell id="gmoIRthzLqsIXVKhnBWM-140" value="gender" style="ellipse;whiteSpace=wrap;html=1;" parent="1" vertex="1">
          <mxGeometry x="-84" y="590" width="70" height="55" as="geometry" />
        </mxCell>
        <mxCell id="gmoIRthzLqsIXVKhnBWM-146" style="edgeStyle=none;orthogonalLoop=1;jettySize=auto;html=1;entryX=1;entryY=0.5;entryDx=0;entryDy=0;endArrow=none;" parent="1" source="gmoIRthzLqsIXVKhnBWM-141" target="gmoIRthzLqsIXVKhnBWM-129" edge="1">
          <mxGeometry relative="1" as="geometry" />
        </mxCell>
        <mxCell id="gmoIRthzLqsIXVKhnBWM-141" value="first name" style="ellipse;whiteSpace=wrap;html=1;" parent="1" vertex="1">
          <mxGeometry x="90" y="685" width="70" height="55" as="geometry" />
        </mxCell>
        <mxCell id="gmoIRthzLqsIXVKhnBWM-147" style="edgeStyle=none;orthogonalLoop=1;jettySize=auto;html=1;entryX=0.75;entryY=1;entryDx=0;entryDy=0;endArrow=none;" parent="1" source="gmoIRthzLqsIXVKhnBWM-142" target="gmoIRthzLqsIXVKhnBWM-129" edge="1">
          <mxGeometry relative="1" as="geometry" />
        </mxCell>
        <mxCell id="gmoIRthzLqsIXVKhnBWM-142" value="last name" style="ellipse;whiteSpace=wrap;html=1;" parent="1" vertex="1">
          <mxGeometry x="60" y="760" width="70" height="55" as="geometry" />
        </mxCell>
        <mxCell id="gmoIRthzLqsIXVKhnBWM-148" value="" style="shape=table;html=1;whiteSpace=wrap;startSize=0;container=1;collapsible=0;childLayout=tableLayout;" parent="1" vertex="1">
          <mxGeometry x="-70" y="1120" width="470" height="28" as="geometry" />
        </mxCell>
        <mxCell id="gmoIRthzLqsIXVKhnBWM-174" value="" style="shape=partialRectangle;html=1;whiteSpace=wrap;collapsible=0;dropTarget=0;pointerEvents=0;fillColor=none;top=0;left=0;bottom=0;right=0;points=[[0,0.5],[1,0.5]];portConstraint=eastwest;" parent="gmoIRthzLqsIXVKhnBWM-148" vertex="1">
          <mxGeometry width="470" height="28" as="geometry" />
        </mxCell>
        <mxCell id="gmoIRthzLqsIXVKhnBWM-175" value="contact number" style="shape=partialRectangle;html=1;whiteSpace=wrap;connectable=0;fillColor=none;top=0;left=0;bottom=0;right=0;overflow=hidden;" parent="gmoIRthzLqsIXVKhnBWM-174" vertex="1">
          <mxGeometry width="157" height="28" as="geometry" />
        </mxCell>
        <mxCell id="gmoIRthzLqsIXVKhnBWM-176" value="suburb" style="shape=partialRectangle;html=1;whiteSpace=wrap;connectable=0;fillColor=none;top=0;left=0;bottom=0;right=0;overflow=hidden;" parent="gmoIRthzLqsIXVKhnBWM-174" vertex="1">
          <mxGeometry x="157" width="156" height="28" as="geometry" />
        </mxCell>
        <mxCell id="gmoIRthzLqsIXVKhnBWM-177" value="street" style="shape=partialRectangle;html=1;whiteSpace=wrap;connectable=0;fillColor=none;top=0;left=0;bottom=0;right=0;overflow=hidden;" parent="gmoIRthzLqsIXVKhnBWM-174" vertex="1">
          <mxGeometry x="313" width="157" height="28" as="geometry" />
        </mxCell>
        <mxCell id="gmoIRthzLqsIXVKhnBWM-191" value="" style="shape=table;html=1;whiteSpace=wrap;startSize=0;container=1;collapsible=0;childLayout=tableLayout;" parent="1" vertex="1">
          <mxGeometry x="-540" y="1120" width="470" height="28" as="geometry" />
        </mxCell>
        <mxCell id="gmoIRthzLqsIXVKhnBWM-192" value="" style="shape=partialRectangle;html=1;whiteSpace=wrap;collapsible=0;dropTarget=0;pointerEvents=0;fillColor=none;top=0;left=0;bottom=0;right=0;points=[[0,0.5],[1,0.5]];portConstraint=eastwest;" parent="gmoIRthzLqsIXVKhnBWM-191" vertex="1">
          <mxGeometry width="470" height="28" as="geometry" />
        </mxCell>
        <mxCell id="gmoIRthzLqsIXVKhnBWM-193" value="&lt;u&gt;cinema ID&lt;/u&gt;" style="shape=partialRectangle;html=1;whiteSpace=wrap;connectable=0;fillColor=none;top=0;left=0;bottom=0;right=0;overflow=hidden;" parent="gmoIRthzLqsIXVKhnBWM-192" vertex="1">
          <mxGeometry width="157" height="28" as="geometry" />
        </mxCell>
        <mxCell id="gmoIRthzLqsIXVKhnBWM-194" value="name" style="shape=partialRectangle;html=1;whiteSpace=wrap;connectable=0;fillColor=none;top=0;left=0;bottom=0;right=0;overflow=hidden;" parent="gmoIRthzLqsIXVKhnBWM-192" vertex="1">
          <mxGeometry x="157" width="156" height="28" as="geometry" />
        </mxCell>
        <mxCell id="gmoIRthzLqsIXVKhnBWM-195" value="manager&#39;s name" style="shape=partialRectangle;html=1;whiteSpace=wrap;connectable=0;fillColor=none;top=0;left=0;bottom=0;right=0;overflow=hidden;" parent="gmoIRthzLqsIXVKhnBWM-192" vertex="1">
          <mxGeometry x="313" width="157" height="28" as="geometry" />
        </mxCell>
        <mxCell id="gmoIRthzLqsIXVKhnBWM-201" value="" style="shape=table;html=1;whiteSpace=wrap;startSize=0;container=1;collapsible=0;childLayout=tableLayout;" parent="1" vertex="1">
          <mxGeometry x="-537" y="1210" width="784" height="28" as="geometry" />
        </mxCell>
        <mxCell id="gmoIRthzLqsIXVKhnBWM-202" value="" style="shape=partialRectangle;html=1;whiteSpace=wrap;collapsible=0;dropTarget=0;pointerEvents=0;fillColor=none;top=0;left=0;bottom=0;right=0;points=[[0,0.5],[1,0.5]];portConstraint=eastwest;" parent="gmoIRthzLqsIXVKhnBWM-201" vertex="1">
          <mxGeometry width="784" height="28" as="geometry" />
        </mxCell>
        <mxCell id="gmoIRthzLqsIXVKhnBWM-203" value="&lt;u&gt;hall ID&lt;/u&gt;" style="shape=partialRectangle;html=1;whiteSpace=wrap;connectable=0;fillColor=none;top=0;left=0;bottom=0;right=0;overflow=hidden;" parent="gmoIRthzLqsIXVKhnBWM-202" vertex="1">
          <mxGeometry width="157" height="28" as="geometry" />
        </mxCell>
        <mxCell id="gmoIRthzLqsIXVKhnBWM-204" value="name" style="shape=partialRectangle;html=1;whiteSpace=wrap;connectable=0;fillColor=none;top=0;left=0;bottom=0;right=0;overflow=hidden;" parent="gmoIRthzLqsIXVKhnBWM-202" vertex="1">
          <mxGeometry x="157" width="156" height="28" as="geometry" />
        </mxCell>
        <mxCell id="gmoIRthzLqsIXVKhnBWM-205" value="categlory" style="shape=partialRectangle;html=1;whiteSpace=wrap;connectable=0;fillColor=none;top=0;left=0;bottom=0;right=0;overflow=hidden;" parent="gmoIRthzLqsIXVKhnBWM-202" vertex="1">
          <mxGeometry x="313" width="157" height="28" as="geometry" />
        </mxCell>
        <mxCell id="gmoIRthzLqsIXVKhnBWM-224" value="cinema ID" style="shape=partialRectangle;html=1;whiteSpace=wrap;connectable=0;fillColor=none;top=0;left=0;bottom=0;right=0;overflow=hidden;" parent="gmoIRthzLqsIXVKhnBWM-202" vertex="1">
          <mxGeometry x="470" width="157" height="28" as="geometry" />
        </mxCell>
        <mxCell id="gmoIRthzLqsIXVKhnBWM-232" value="number of seats" style="shape=partialRectangle;html=1;whiteSpace=wrap;connectable=0;fillColor=none;top=0;left=0;bottom=0;right=0;overflow=hidden;" parent="gmoIRthzLqsIXVKhnBWM-202" vertex="1">
          <mxGeometry x="627" width="157" height="28" as="geometry" />
        </mxCell>
        <mxCell id="gmoIRthzLqsIXVKhnBWM-225" value="" style="endArrow=classic;html=1;exitX=0.706;exitY=-0.048;exitDx=0;exitDy=0;exitPerimeter=0;entryX=0.185;entryY=1.071;entryDx=0;entryDy=0;entryPerimeter=0;" parent="1" source="gmoIRthzLqsIXVKhnBWM-202" target="gmoIRthzLqsIXVKhnBWM-192" edge="1">
          <mxGeometry width="50" height="50" relative="1" as="geometry">
            <mxPoint x="170" y="930" as="sourcePoint" />
            <mxPoint x="-500" y="1180" as="targetPoint" />
            <Array as="points">
              <mxPoint x="18" y="1180" />
              <mxPoint x="-453" y="1180" />
            </Array>
          </mxGeometry>
        </mxCell>
        <mxCell id="gmoIRthzLqsIXVKhnBWM-226" value="" style="shape=table;html=1;whiteSpace=wrap;startSize=0;container=1;collapsible=0;childLayout=tableLayout;" parent="1" vertex="1">
          <mxGeometry x="-537" y="1310" width="313" height="28" as="geometry" />
        </mxCell>
        <mxCell id="gmoIRthzLqsIXVKhnBWM-227" value="" style="shape=partialRectangle;html=1;whiteSpace=wrap;collapsible=0;dropTarget=0;pointerEvents=0;fillColor=none;top=0;left=0;bottom=0;right=0;points=[[0,0.5],[1,0.5]];portConstraint=eastwest;" parent="gmoIRthzLqsIXVKhnBWM-226" vertex="1">
          <mxGeometry width="313" height="28" as="geometry" />
        </mxCell>
        <mxCell id="gmoIRthzLqsIXVKhnBWM-228" value="&lt;u&gt;seat ID&lt;/u&gt;" style="shape=partialRectangle;html=1;whiteSpace=wrap;connectable=0;fillColor=none;top=0;left=0;bottom=0;right=0;overflow=hidden;" parent="gmoIRthzLqsIXVKhnBWM-227" vertex="1">
          <mxGeometry width="157" height="28" as="geometry" />
        </mxCell>
        <mxCell id="gmoIRthzLqsIXVKhnBWM-229" value="&lt;u&gt;hall ID&lt;/u&gt;" style="shape=partialRectangle;html=1;whiteSpace=wrap;connectable=0;fillColor=none;top=0;left=0;bottom=0;right=0;overflow=hidden;" parent="gmoIRthzLqsIXVKhnBWM-227" vertex="1">
          <mxGeometry x="157" width="156" height="28" as="geometry" />
        </mxCell>
        <mxCell id="gmoIRthzLqsIXVKhnBWM-233" value="" style="endArrow=classic;html=1;entryX=0.112;entryY=1.143;entryDx=0;entryDy=0;entryPerimeter=0;exitX=0.78;exitY=0;exitDx=0;exitDy=0;exitPerimeter=0;" parent="1" source="gmoIRthzLqsIXVKhnBWM-227" target="gmoIRthzLqsIXVKhnBWM-202" edge="1">
          <mxGeometry width="50" height="50" relative="1" as="geometry">
            <mxPoint x="170" y="930" as="sourcePoint" />
            <mxPoint x="220" y="880" as="targetPoint" />
            <Array as="points">
              <mxPoint x="-293" y="1280" />
              <mxPoint x="-449" y="1280" />
            </Array>
          </mxGeometry>
        </mxCell>
        <mxCell id="gmoIRthzLqsIXVKhnBWM-234" value="" style="shape=table;html=1;whiteSpace=wrap;startSize=0;container=1;collapsible=0;childLayout=tableLayout;" parent="1" vertex="1">
          <mxGeometry x="-537" y="1400" width="627" height="28" as="geometry" />
        </mxCell>
        <mxCell id="gmoIRthzLqsIXVKhnBWM-235" value="" style="shape=partialRectangle;html=1;whiteSpace=wrap;collapsible=0;dropTarget=0;pointerEvents=0;fillColor=none;top=0;left=0;bottom=0;right=0;points=[[0,0.5],[1,0.5]];portConstraint=eastwest;" parent="gmoIRthzLqsIXVKhnBWM-234" vertex="1">
          <mxGeometry width="627" height="28" as="geometry" />
        </mxCell>
        <mxCell id="gmoIRthzLqsIXVKhnBWM-236" value="&lt;u&gt;sessions ID&lt;/u&gt;" style="shape=partialRectangle;html=1;whiteSpace=wrap;connectable=0;fillColor=none;top=0;left=0;bottom=0;right=0;overflow=hidden;" parent="gmoIRthzLqsIXVKhnBWM-235" vertex="1">
          <mxGeometry width="157" height="28" as="geometry" />
        </mxCell>
        <mxCell id="gmoIRthzLqsIXVKhnBWM-237" value="start time" style="shape=partialRectangle;html=1;whiteSpace=wrap;connectable=0;fillColor=none;top=0;left=0;bottom=0;right=0;overflow=hidden;" parent="gmoIRthzLqsIXVKhnBWM-235" vertex="1">
          <mxGeometry x="157" width="156" height="28" as="geometry" />
        </mxCell>
        <mxCell id="gmoIRthzLqsIXVKhnBWM-238" value="end time" style="shape=partialRectangle;html=1;whiteSpace=wrap;connectable=0;fillColor=none;top=0;left=0;bottom=0;right=0;overflow=hidden;" parent="gmoIRthzLqsIXVKhnBWM-235" vertex="1">
          <mxGeometry x="313" width="157" height="28" as="geometry" />
        </mxCell>
        <mxCell id="gmoIRthzLqsIXVKhnBWM-239" value="hall ID&amp;nbsp;" style="shape=partialRectangle;html=1;whiteSpace=wrap;connectable=0;fillColor=none;top=0;left=0;bottom=0;right=0;overflow=hidden;" parent="gmoIRthzLqsIXVKhnBWM-235" vertex="1">
          <mxGeometry x="470" width="157" height="28" as="geometry" />
        </mxCell>
        <mxCell id="gmoIRthzLqsIXVKhnBWM-241" value="" style="endArrow=classic;html=1;exitX=0.876;exitY=-0.119;exitDx=0;exitDy=0;exitPerimeter=0;entryX=0;entryY=0.5;entryDx=0;entryDy=0;" parent="1" source="gmoIRthzLqsIXVKhnBWM-235" target="gmoIRthzLqsIXVKhnBWM-202" edge="1">
          <mxGeometry width="50" height="50" relative="1" as="geometry">
            <mxPoint x="170" y="1090" as="sourcePoint" />
            <mxPoint x="-610" y="1230" as="targetPoint" />
            <Array as="points">
              <mxPoint x="12" y="1360" />
              <mxPoint x="-610" y="1360" />
              <mxPoint x="-610" y="1224" />
            </Array>
          </mxGeometry>
        </mxCell>
        <mxCell id="gmoIRthzLqsIXVKhnBWM-242" value="" style="shape=table;html=1;whiteSpace=wrap;startSize=0;container=1;collapsible=0;childLayout=tableLayout;" parent="1" vertex="1">
          <mxGeometry x="-540" y="1480" width="627" height="28" as="geometry" />
        </mxCell>
        <mxCell id="gmoIRthzLqsIXVKhnBWM-243" value="" style="shape=partialRectangle;html=1;whiteSpace=wrap;collapsible=0;dropTarget=0;pointerEvents=0;fillColor=none;top=0;left=0;bottom=0;right=0;points=[[0,0.5],[1,0.5]];portConstraint=eastwest;" parent="gmoIRthzLqsIXVKhnBWM-242" vertex="1">
          <mxGeometry width="627" height="28" as="geometry" />
        </mxCell>
        <mxCell id="gmoIRthzLqsIXVKhnBWM-244" value="&lt;u&gt;movie ID&lt;/u&gt;" style="shape=partialRectangle;html=1;whiteSpace=wrap;connectable=0;fillColor=none;top=0;left=0;bottom=0;right=0;overflow=hidden;" parent="gmoIRthzLqsIXVKhnBWM-243" vertex="1">
          <mxGeometry width="157" height="28" as="geometry" />
        </mxCell>
        <mxCell id="gmoIRthzLqsIXVKhnBWM-245" value="rating" style="shape=partialRectangle;html=1;whiteSpace=wrap;connectable=0;fillColor=none;top=0;left=0;bottom=0;right=0;overflow=hidden;" parent="gmoIRthzLqsIXVKhnBWM-243" vertex="1">
          <mxGeometry x="157" width="156" height="28" as="geometry" />
        </mxCell>
        <mxCell id="gmoIRthzLqsIXVKhnBWM-246" value="category" style="shape=partialRectangle;html=1;whiteSpace=wrap;connectable=0;fillColor=none;top=0;left=0;bottom=0;right=0;overflow=hidden;" parent="gmoIRthzLqsIXVKhnBWM-243" vertex="1">
          <mxGeometry x="313" width="157" height="28" as="geometry" />
        </mxCell>
        <mxCell id="gmoIRthzLqsIXVKhnBWM-247" value="sessions ID" style="shape=partialRectangle;html=1;whiteSpace=wrap;connectable=0;fillColor=none;top=0;left=0;bottom=0;right=0;overflow=hidden;" parent="gmoIRthzLqsIXVKhnBWM-243" vertex="1">
          <mxGeometry x="470" width="157" height="28" as="geometry" />
        </mxCell>
        <mxCell id="gmoIRthzLqsIXVKhnBWM-248" value="" style="endArrow=classic;html=1;exitX=0.877;exitY=-0.071;exitDx=0;exitDy=0;exitPerimeter=0;entryX=0.113;entryY=1.119;entryDx=0;entryDy=0;entryPerimeter=0;" parent="1" source="gmoIRthzLqsIXVKhnBWM-243" target="gmoIRthzLqsIXVKhnBWM-235" edge="1">
          <mxGeometry width="50" height="50" relative="1" as="geometry">
            <mxPoint x="170" y="1090" as="sourcePoint" />
            <mxPoint x="220" y="1040" as="targetPoint" />
            <Array as="points">
              <mxPoint x="10" y="1460" />
              <mxPoint x="-466" y="1460" />
            </Array>
          </mxGeometry>
        </mxCell>
        <mxCell id="gmoIRthzLqsIXVKhnBWM-249" value="" style="shape=table;html=1;whiteSpace=wrap;startSize=0;container=1;collapsible=0;childLayout=tableLayout;" parent="1" vertex="1">
          <mxGeometry x="-546.5" y="1560" width="313" height="28" as="geometry" />
        </mxCell>
        <mxCell id="gmoIRthzLqsIXVKhnBWM-250" value="" style="shape=partialRectangle;html=1;whiteSpace=wrap;collapsible=0;dropTarget=0;pointerEvents=0;fillColor=none;top=0;left=0;bottom=0;right=0;points=[[0,0.5],[1,0.5]];portConstraint=eastwest;" parent="gmoIRthzLqsIXVKhnBWM-249" vertex="1">
          <mxGeometry width="313" height="28" as="geometry" />
        </mxCell>
        <mxCell id="gmoIRthzLqsIXVKhnBWM-251" value="&lt;u&gt;movies ID&amp;nbsp;&lt;/u&gt;" style="shape=partialRectangle;html=1;whiteSpace=wrap;connectable=0;fillColor=none;top=0;left=0;bottom=0;right=0;overflow=hidden;" parent="gmoIRthzLqsIXVKhnBWM-250" vertex="1">
          <mxGeometry width="157" height="28" as="geometry" />
        </mxCell>
        <mxCell id="gmoIRthzLqsIXVKhnBWM-252" value="&lt;u&gt;languages&lt;/u&gt;" style="shape=partialRectangle;html=1;whiteSpace=wrap;connectable=0;fillColor=none;top=0;left=0;bottom=0;right=0;overflow=hidden;" parent="gmoIRthzLqsIXVKhnBWM-250" vertex="1">
          <mxGeometry x="157" width="156" height="28" as="geometry" />
        </mxCell>
        <mxCell id="gmoIRthzLqsIXVKhnBWM-253" value="" style="endArrow=classic;html=1;" parent="1" edge="1">
          <mxGeometry width="50" height="50" relative="1" as="geometry">
            <mxPoint x="-467" y="1559" as="sourcePoint" />
            <mxPoint x="-467" y="1510" as="targetPoint" />
          </mxGeometry>
        </mxCell>
        <mxCell id="gmoIRthzLqsIXVKhnBWM-254" value="" style="shape=table;html=1;whiteSpace=wrap;startSize=0;container=1;collapsible=0;childLayout=tableLayout;" parent="1" vertex="1">
          <mxGeometry x="-546.5" y="1640" width="313" height="28" as="geometry" />
        </mxCell>
        <mxCell id="gmoIRthzLqsIXVKhnBWM-255" value="" style="shape=partialRectangle;html=1;whiteSpace=wrap;collapsible=0;dropTarget=0;pointerEvents=0;fillColor=none;top=0;left=0;bottom=0;right=0;points=[[0,0.5],[1,0.5]];portConstraint=eastwest;" parent="gmoIRthzLqsIXVKhnBWM-254" vertex="1">
          <mxGeometry width="313" height="28" as="geometry" />
        </mxCell>
        <mxCell id="gmoIRthzLqsIXVKhnBWM-256" value="&lt;u&gt;movie ID&lt;/u&gt;" style="shape=partialRectangle;html=1;whiteSpace=wrap;connectable=0;fillColor=none;top=0;left=0;bottom=0;right=0;overflow=hidden;" parent="gmoIRthzLqsIXVKhnBWM-255" vertex="1">
          <mxGeometry width="157" height="28" as="geometry" />
        </mxCell>
        <mxCell id="gmoIRthzLqsIXVKhnBWM-257" value="&lt;u&gt;actor ID&lt;/u&gt;" style="shape=partialRectangle;html=1;whiteSpace=wrap;connectable=0;fillColor=none;top=0;left=0;bottom=0;right=0;overflow=hidden;" parent="gmoIRthzLqsIXVKhnBWM-255" vertex="1">
          <mxGeometry x="157" width="156" height="28" as="geometry" />
        </mxCell>
        <mxCell id="gmoIRthzLqsIXVKhnBWM-260" value="" style="shape=table;html=1;whiteSpace=wrap;startSize=0;container=1;collapsible=0;childLayout=tableLayout;" parent="1" vertex="1">
          <mxGeometry x="-546.5" y="1720" width="784" height="28" as="geometry" />
        </mxCell>
        <mxCell id="gmoIRthzLqsIXVKhnBWM-261" value="" style="shape=partialRectangle;html=1;whiteSpace=wrap;collapsible=0;dropTarget=0;pointerEvents=0;fillColor=none;top=0;left=0;bottom=0;right=0;points=[[0,0.5],[1,0.5]];portConstraint=eastwest;" parent="gmoIRthzLqsIXVKhnBWM-260" vertex="1">
          <mxGeometry width="784" height="28" as="geometry" />
        </mxCell>
        <mxCell id="gmoIRthzLqsIXVKhnBWM-262" value="&lt;u&gt;actor ID&lt;/u&gt;" style="shape=partialRectangle;html=1;whiteSpace=wrap;connectable=0;fillColor=none;top=0;left=0;bottom=0;right=0;overflow=hidden;" parent="gmoIRthzLqsIXVKhnBWM-261" vertex="1">
          <mxGeometry width="157" height="28" as="geometry" />
        </mxCell>
        <mxCell id="gmoIRthzLqsIXVKhnBWM-263" value="gender" style="shape=partialRectangle;html=1;whiteSpace=wrap;connectable=0;fillColor=none;top=0;left=0;bottom=0;right=0;overflow=hidden;" parent="gmoIRthzLqsIXVKhnBWM-261" vertex="1">
          <mxGeometry x="157" width="156" height="28" as="geometry" />
        </mxCell>
        <mxCell id="gmoIRthzLqsIXVKhnBWM-264" value="birth" style="shape=partialRectangle;html=1;whiteSpace=wrap;connectable=0;fillColor=none;top=0;left=0;bottom=0;right=0;overflow=hidden;" parent="gmoIRthzLqsIXVKhnBWM-261" vertex="1">
          <mxGeometry x="313" width="157" height="28" as="geometry" />
        </mxCell>
        <mxCell id="gmoIRthzLqsIXVKhnBWM-265" value="first name" style="shape=partialRectangle;html=1;whiteSpace=wrap;connectable=0;fillColor=none;top=0;left=0;bottom=0;right=0;overflow=hidden;" parent="gmoIRthzLqsIXVKhnBWM-261" vertex="1">
          <mxGeometry x="470" width="157" height="28" as="geometry" />
        </mxCell>
        <mxCell id="gmoIRthzLqsIXVKhnBWM-266" value="last name" style="shape=partialRectangle;html=1;whiteSpace=wrap;connectable=0;fillColor=none;top=0;left=0;bottom=0;right=0;overflow=hidden;" parent="gmoIRthzLqsIXVKhnBWM-261" vertex="1">
          <mxGeometry x="627" width="157" height="28" as="geometry" />
        </mxCell>
        <mxCell id="gmoIRthzLqsIXVKhnBWM-267" value="" style="endArrow=classic;html=1;entryX=0.099;entryY=-0.024;entryDx=0;entryDy=0;entryPerimeter=0;exitX=0.733;exitY=1.071;exitDx=0;exitDy=0;exitPerimeter=0;" parent="1" source="gmoIRthzLqsIXVKhnBWM-255" target="gmoIRthzLqsIXVKhnBWM-261" edge="1">
          <mxGeometry width="50" height="50" relative="1" as="geometry">
            <mxPoint x="170" y="1430" as="sourcePoint" />
            <mxPoint x="220" y="1380" as="targetPoint" />
            <Array as="points">
              <mxPoint x="-317" y="1700" />
              <mxPoint x="-469" y="1700" />
            </Array>
          </mxGeometry>
        </mxCell>
        <mxCell id="gmoIRthzLqsIXVKhnBWM-268" value="" style="endArrow=classic;html=1;" parent="1" edge="1">
          <mxGeometry width="50" height="50" relative="1" as="geometry">
            <mxPoint x="-480" y="1638" as="sourcePoint" />
            <mxPoint x="-476" y="1590" as="targetPoint" />
          </mxGeometry>
        </mxCell>
        <mxCell id="gmoIRthzLqsIXVKhnBWM-275" value="" style="shape=table;html=1;whiteSpace=wrap;startSize=0;container=1;collapsible=0;childLayout=tableLayout;" parent="1" vertex="1">
          <mxGeometry x="-546.5" y="1800" width="784" height="28" as="geometry" />
        </mxCell>
        <mxCell id="gmoIRthzLqsIXVKhnBWM-276" value="" style="shape=partialRectangle;html=1;whiteSpace=wrap;collapsible=0;dropTarget=0;pointerEvents=0;fillColor=none;top=0;left=0;bottom=0;right=0;points=[[0,0.5],[1,0.5]];portConstraint=eastwest;" parent="gmoIRthzLqsIXVKhnBWM-275" vertex="1">
          <mxGeometry width="784" height="28" as="geometry" />
        </mxCell>
        <mxCell id="gmoIRthzLqsIXVKhnBWM-277" value="&lt;u&gt;director ID&lt;/u&gt;" style="shape=partialRectangle;html=1;whiteSpace=wrap;connectable=0;fillColor=none;top=0;left=0;bottom=0;right=0;overflow=hidden;" parent="gmoIRthzLqsIXVKhnBWM-276" vertex="1">
          <mxGeometry width="157" height="28" as="geometry" />
        </mxCell>
        <mxCell id="gmoIRthzLqsIXVKhnBWM-278" value="nationality" style="shape=partialRectangle;html=1;whiteSpace=wrap;connectable=0;fillColor=none;top=0;left=0;bottom=0;right=0;overflow=hidden;" parent="gmoIRthzLqsIXVKhnBWM-276" vertex="1">
          <mxGeometry x="157" width="156" height="28" as="geometry" />
        </mxCell>
        <mxCell id="gmoIRthzLqsIXVKhnBWM-279" value="birth" style="shape=partialRectangle;html=1;whiteSpace=wrap;connectable=0;fillColor=none;top=0;left=0;bottom=0;right=0;overflow=hidden;" parent="gmoIRthzLqsIXVKhnBWM-276" vertex="1">
          <mxGeometry x="313" width="157" height="28" as="geometry" />
        </mxCell>
        <mxCell id="gmoIRthzLqsIXVKhnBWM-280" value="first name" style="shape=partialRectangle;html=1;whiteSpace=wrap;connectable=0;fillColor=none;top=0;left=0;bottom=0;right=0;overflow=hidden;" parent="gmoIRthzLqsIXVKhnBWM-276" vertex="1">
          <mxGeometry x="470" width="157" height="28" as="geometry" />
        </mxCell>
        <mxCell id="gmoIRthzLqsIXVKhnBWM-281" value="last name" style="shape=partialRectangle;html=1;whiteSpace=wrap;connectable=0;fillColor=none;top=0;left=0;bottom=0;right=0;overflow=hidden;" parent="gmoIRthzLqsIXVKhnBWM-276" vertex="1">
          <mxGeometry x="627" width="157" height="28" as="geometry" />
        </mxCell>
        <mxCell id="gmoIRthzLqsIXVKhnBWM-285" value="" style="shape=table;html=1;whiteSpace=wrap;startSize=0;container=1;collapsible=0;childLayout=tableLayout;" parent="1" vertex="1">
          <mxGeometry x="-551.5" y="1880" width="313" height="28" as="geometry" />
        </mxCell>
        <mxCell id="gmoIRthzLqsIXVKhnBWM-286" value="" style="shape=partialRectangle;html=1;whiteSpace=wrap;collapsible=0;dropTarget=0;pointerEvents=0;fillColor=none;top=0;left=0;bottom=0;right=0;points=[[0,0.5],[1,0.5]];portConstraint=eastwest;" parent="gmoIRthzLqsIXVKhnBWM-285" vertex="1">
          <mxGeometry width="313" height="28" as="geometry" />
        </mxCell>
        <mxCell id="gmoIRthzLqsIXVKhnBWM-287" value="&lt;u&gt;movies ID&amp;nbsp;&lt;/u&gt;" style="shape=partialRectangle;html=1;whiteSpace=wrap;connectable=0;fillColor=none;top=0;left=0;bottom=0;right=0;overflow=hidden;" parent="gmoIRthzLqsIXVKhnBWM-286" vertex="1">
          <mxGeometry width="157" height="28" as="geometry" />
        </mxCell>
        <mxCell id="gmoIRthzLqsIXVKhnBWM-288" value="&lt;u&gt;director ID&lt;/u&gt;" style="shape=partialRectangle;html=1;whiteSpace=wrap;connectable=0;fillColor=none;top=0;left=0;bottom=0;right=0;overflow=hidden;" parent="gmoIRthzLqsIXVKhnBWM-286" vertex="1">
          <mxGeometry x="157" width="156" height="28" as="geometry" />
        </mxCell>
        <mxCell id="gmoIRthzLqsIXVKhnBWM-290" value="" style="endArrow=classic;html=1;entryX=0;entryY=0.5;entryDx=0;entryDy=0;" parent="1" target="gmoIRthzLqsIXVKhnBWM-250" edge="1">
          <mxGeometry width="50" height="50" relative="1" as="geometry">
            <mxPoint x="-560" y="1890" as="sourcePoint" />
            <mxPoint x="-630" y="1670" as="targetPoint" />
            <Array as="points">
              <mxPoint x="-610" y="1890" />
              <mxPoint x="-610" y="1574" />
            </Array>
          </mxGeometry>
        </mxCell>
        <mxCell id="gmoIRthzLqsIXVKhnBWM-291" value="" style="endArrow=classic;html=1;entryX=0;entryY=0.5;entryDx=0;entryDy=0;exitX=0.758;exitY=0.024;exitDx=0;exitDy=0;exitPerimeter=0;" parent="1" source="gmoIRthzLqsIXVKhnBWM-286" target="gmoIRthzLqsIXVKhnBWM-276" edge="1">
          <mxGeometry width="50" height="50" relative="1" as="geometry">
            <mxPoint x="170" y="1760" as="sourcePoint" />
            <mxPoint x="220" y="1710" as="targetPoint" />
            <Array as="points">
              <mxPoint x="-314" y="1850" />
              <mxPoint x="-580" y="1850" />
              <mxPoint x="-580" y="1814" />
            </Array>
          </mxGeometry>
        </mxCell>
        <mxCell id="gmoIRthzLqsIXVKhnBWM-292" value="&lt;font style=&quot;font-size: 18px&quot;&gt;seat&lt;/font&gt;" style="text;html=1;strokeColor=none;fillColor=none;align=center;verticalAlign=middle;whiteSpace=wrap;rounded=0;" parent="1" vertex="1">
          <mxGeometry x="-560" y="1280" width="110" height="20" as="geometry" />
        </mxCell>
        <mxCell id="gmoIRthzLqsIXVKhnBWM-293" value="&lt;font style=&quot;font-size: 18px&quot;&gt;cinema&lt;/font&gt;" style="text;html=1;strokeColor=none;fillColor=none;align=center;verticalAlign=middle;whiteSpace=wrap;rounded=0;" parent="1" vertex="1">
          <mxGeometry x="-580" y="1090" width="110" height="20" as="geometry" />
        </mxCell>
        <mxCell id="gmoIRthzLqsIXVKhnBWM-294" value="&lt;font style=&quot;font-size: 18px&quot;&gt;hall&lt;/font&gt;" style="text;html=1;strokeColor=none;fillColor=none;align=center;verticalAlign=middle;whiteSpace=wrap;rounded=0;" parent="1" vertex="1">
          <mxGeometry x="-580" y="1180" width="110" height="20" as="geometry" />
        </mxCell>
        <mxCell id="gmoIRthzLqsIXVKhnBWM-295" value="&lt;font style=&quot;font-size: 18px&quot;&gt;session&lt;/font&gt;" style="text;html=1;strokeColor=none;fillColor=none;align=center;verticalAlign=middle;whiteSpace=wrap;rounded=0;" parent="1" vertex="1">
          <mxGeometry x="-570" y="1370" width="110" height="20" as="geometry" />
        </mxCell>
        <mxCell id="gmoIRthzLqsIXVKhnBWM-296" value="&lt;font style=&quot;font-size: 18px&quot;&gt;movie&lt;/font&gt;" style="text;html=1;strokeColor=none;fillColor=none;align=center;verticalAlign=middle;whiteSpace=wrap;rounded=0;" parent="1" vertex="1">
          <mxGeometry x="-570" y="1450" width="110" height="20" as="geometry" />
        </mxCell>
        <mxCell id="gmoIRthzLqsIXVKhnBWM-297" value="&lt;font style=&quot;font-size: 18px&quot;&gt;movie&#39;s language&lt;/font&gt;" style="text;html=1;strokeColor=none;fillColor=none;align=center;verticalAlign=middle;whiteSpace=wrap;rounded=0;" parent="1" vertex="1">
          <mxGeometry x="-660" y="1530" width="200" height="20" as="geometry" />
        </mxCell>
        <mxCell id="gmoIRthzLqsIXVKhnBWM-298" value="&lt;font style=&quot;font-size: 18px&quot;&gt;movie&#39;s actor&lt;/font&gt;" style="text;html=1;strokeColor=none;fillColor=none;align=center;verticalAlign=middle;whiteSpace=wrap;rounded=0;" parent="1" vertex="1">
          <mxGeometry x="-640" y="1610" width="200" height="20" as="geometry" />
        </mxCell>
        <mxCell id="gmoIRthzLqsIXVKhnBWM-300" value="&lt;font style=&quot;font-size: 18px&quot;&gt;actor&lt;/font&gt;" style="text;html=1;strokeColor=none;fillColor=none;align=center;verticalAlign=middle;whiteSpace=wrap;rounded=0;" parent="1" vertex="1">
          <mxGeometry x="-613" y="1700" width="200" height="20" as="geometry" />
        </mxCell>
        <mxCell id="gmoIRthzLqsIXVKhnBWM-301" value="&lt;font style=&quot;font-size: 18px&quot;&gt;director&lt;/font&gt;" style="text;html=1;strokeColor=none;fillColor=none;align=center;verticalAlign=middle;whiteSpace=wrap;rounded=0;" parent="1" vertex="1">
          <mxGeometry x="-613" y="1770" width="200" height="20" as="geometry" />
        </mxCell>
        <mxCell id="gmoIRthzLqsIXVKhnBWM-302" value="&lt;font style=&quot;font-size: 18px&quot;&gt;movie&#39;s director&lt;/font&gt;" style="text;html=1;strokeColor=none;fillColor=none;align=center;verticalAlign=middle;whiteSpace=wrap;rounded=0;" parent="1" vertex="1">
          <mxGeometry x="-605" y="1860" width="200" height="20" as="geometry" />
        </mxCell>
      </root>
    </mxGraphModel>
  </diagram>
</mxfile>
